<svg xmlns="http://www.w3.org/2000/svg" viewBox="0 0 240 48" fill="none">
  <rect width="240" height="48" rx="8" fill="#4285F4"/>
  <path d="M50.5 12H44C42 12 40.5 13.5 40.5 15.5V21H47.5V15.5H50.5V21H54.5V15.5C54.5 13.5 53 12 51 12H50.5Z" fill="white"/>
  <path d="M63.5 12H59V21H63.5V17.5H66.5C70.5 17.5 72.5 15 72.5 12C72.5 9 70.5 7 66.5 7H59C56 7 54 8.5 54 11V12H63.5ZM63.5 14.5H60V9.5H66.5C68.5 9.5 69.5 10.5 69.5 12C69.5 13.5 68.5 14.5 66.5 14.5H63.5Z" fill="white"/>
  <path d="M81 12H74C72.5 12 71 13 71 14.5C71 15.5 72 16.5 73 16.5H77C79.5 16.5 81 18 81 20.5C81 23.5 79 25 76 25H73V21H76C77 21 78 20.5 78 19.5C78 18.5 77 18 76 18H72V14.5H76C77.5 14.5 79 13.5 79 12C79 10.5 77.5 10 76 10H73C70.5 10 69 11.5 69 14V15H81V12Z" fill="white"/>
  <path d="M86.5 7H83.5V21H86.5V7Z" fill="white"/>
  <path d="M95.5 12H93C91.5 12 90 13 90 14.5C90 15.5 91 16.5 92 16.5H96C98.5 16.5 100 18 100 20.5C100 23.5 98 25 95 25H92V21H95C96 21 97 20.5 97 19.5C97 18.5 96 18 95 18H91V14.5H95C96.5 14.5 98 13.5 98 12C98 10.5 96.5 10 95 10H92C89.5 10 88 11.5 88 14V15H100V12H95.5Z" fill="white"/>
  <path d="M108.5 7H105.5V21H108.5V14.5H110.5C113.5 14.5 115 12.5 115 10.5C115 8.5 113.5 7 111.5 7H108.5ZM111.5 12H108.5V9.5H111.5C112.5 9.5 113.5 10 113.5 11C113.5 12 112.5 12 111.5 12Z" fill="white"/>
  <path d="M134 16H141C141 13.5 139.5 12 137 12H132.5V21H135.5V16H134ZM132.5 14.5H136.5C137.5 14.5 138.5 15 138.5 16C138.5 17 137.5 17.5 136.5 17.5H132.5V14.5Z" fill="white"/>
  <path d="M150.5 12H148C146.5 12 145 13 145 14.5C145 15.5 146 16.5 147 16.5H151C153.5 16.5 155 18 155 20.5C155 23.5 153 25 150 25H147V21H150C151 21 152 20.5 152 19.5C152 18.5 151 18 150 18H146V14.5H150C151.5 14.5 153 13.5 153 12C153 10.5 151.5 10 150 10H147C144.5 10 143 11.5 143 14V15H155V12H150.5Z" fill="white"/>
  <path d="M164 7H161V21H164V14.5H166C169 14.5 170.5 12.5 170.5 10.5C170.5 8.5 169 7 167 7H164ZM167 12H164V9.5H167C168 9.5 169 10 169 11C169 12 168 12 167 12Z" fill="white"/>
  <path d="M180 12H172C170.5 12 169 13 169 14.5C169 15.5 170 16.5 171 16.5H175C177.5 16.5 179 18 179 20.5C179 23.5 177 25 174 25H171V21H174C175 21 176 20.5 176 19.5C176 18.5 175 18 174 18H170V14.5H174C175.5 14.5 177 13.5 177 12C177 10.5 175.5 10 174 10H171C168.5 10 167 11.5 167 14V15H179V12Z" fill="white"/>
  <path d="M199 14.5C199 10 195.5 7 191.5 7C187.5 7 184 10 184 14.5C184 19 187.5 22 191.5 22C193.5 22 195 21.5 196 20.5L194 18.5C193.5 19 192.5 19.5 191.5 19.5C189.5 19.5 188 18.5 187.5 17H197C197 16.5 197 15.5 197 14.5H199ZM191.5 9.5C193.5 9.5 195 10.5 195.5 12H187.5C188 10.5 189.5 9.5 191.5 9.5Z" fill="white"/>
  <path d="M209 16H216C216 13.5 214.5 12 212 12H207.5V21H210.5V16H209ZM207.5 14.5H211.5C212.5 14.5 213.5 15 213.5 16C213.5 17 212.5 17.5 211.5 17.5H207.5V14.5Z" fill="white"/>
  <path d="M224 7H221V21H224V14.5H226C229 14.5 230.5 12.5 230.5 10.5C230.5 8.5 229 7 227 7H224ZM227 12H224V9.5H227C228 9.5 229 10 229 11C229 12 228 12 227 12Z" fill="white"/>
  <text x="120" y="30" font-family="Arial, sans-serif" font-size="14" font-weight="bold" fill="white" text-anchor="middle">Checkout</text>
</svg>
